<?xml version="1.0" encoding="utf-8"?>
<!-- Generator: Adobe Illustrator 16.0.0, SVG Export Plug-In . SVG Version: 6.00 Build 0)  -->
<!DOCTYPE svg PUBLIC "-//W3C//DTD SVG 1.1//EN" "http://www.w3.org/Graphics/SVG/1.1/DTD/svg11.dtd">
<svg version="1.1" id="Layer_1" xmlns="http://www.w3.org/2000/svg" xmlns:xlink="http://www.w3.org/1999/xlink" x="0px" y="0px"
	 width="24px" height="24px" viewBox="0 0 24 24" enable-background="new 0 0 24 24" xml:space="preserve">
<path fill="#CC9933" d="M19,1.316c-0.988,0-2,0.801-2,1.79v5.559C17,8.543,16.594,8,16.128,8h-0.447c0-4-1.603-7.158-3.579-7.158
	S8.522,4,8.522,8H8.075C7.609,8,7,8.543,7,8.665V3.106c0-0.988-1.012-1.79-2-1.79s-2,0.801-2,1.79v13.421
	C3,17.516,3.955,18,4.943,18h3.132h8.053h3.132c0.988,0,1.74-0.484,1.74-1.473V3.106C21,2.118,19.988,1.316,19,1.316z
	 M12.102,13.843c-0.988,0-1.79-2.204-1.79-4.921c0-2.719,0.801-4.922,1.79-4.922s1.789,2.203,1.789,4.922
	C13.891,11.639,13.09,13.843,12.102,13.843z"/>
<g>
</g>
<g>
</g>
<g>
</g>
<g>
</g>
<g>
</g>
<g>
</g>
<g>
</g>
<g>
</g>
<g>
</g>
<g>
</g>
<g>
</g>
<g>
</g>
<g>
</g>
<g>
</g>
<g>
</g>
</svg>
